HIERARCHY
ROOT Hips
{
	OFFSET -276.353088 91.340736 254.724106
	CHANNELS 6 Xposition Yposition Zposition Zrotation Yrotation Xrotation 
	JOINT LeftUpLeg
	{
		OFFSET 0.103459 1.857828 10.548492
		CHANNELS 3 Xrotation Yrotation Zrotation
		JOINT LeftLeg
		{
			OFFSET 43.500004 -0.000011 -0.000004
			CHANNELS 3 Xrotation Yrotation Zrotation
			JOINT LeftFoot
			{
				OFFSET 42.372200 0.000004 -0.000018
				CHANNELS 3 Xrotation Yrotation Zrotation
				JOINT LeftToe
				{
					OFFSET 17.299999 -0.000001 -0.000005
					CHANNELS 3 Xrotation Yrotation Zrotation
					End Site
					{
						OFFSET 0.000000 0.000000 0.000000
					}
				}
			}
		}
	}
	JOINT RightUpLeg
	{
		OFFSET 0.103456 1.857824 -10.548500
		CHANNELS 3 Xrotation Yrotation Zrotation
		JOINT RightLeg
		{
			OFFSET 43.500046 -0.000004 0.000013
			CHANNELS 3 Xrotation Yrotation Zrotation
			JOINT RightFoot
			{
				OFFSET 42.372269 -0.000015 0.000020
				CHANNELS 3 Xrotation Yrotation Zrotation
				JOINT RightToe
				{
					OFFSET 17.299974 -0.000010 -0.000002
					CHANNELS 3 Xrotation Yrotation Zrotation
					End Site
					{
						OFFSET 0.000000 0.000000 0.000000
					}
				}
			}
		}
	}
	JOINT Spine
	{
		OFFSET 6.901967 -2.603733 0.000003
		CHANNELS 3 Xrotation Yrotation Zrotation
		JOINT Spine1
		{
			OFFSET 12.588101 0.000006 -0.000014
			CHANNELS 3 Xrotation Yrotation Zrotation
			JOINT Spine2
			{
				OFFSET 12.343203 -0.000006 0.000010
				CHANNELS 3 Xrotation Yrotation Zrotation
				JOINT Neck
				{
					OFFSET 25.832886 -0.000004 0.000009
					CHANNELS 3 Xrotation Yrotation Zrotation
					JOINT Head
					{
						OFFSET 11.766619 0.000000 -0.000008
						CHANNELS 3 Xrotation Yrotation Zrotation
						End Site
						{
							OFFSET 0.000000 0.000000 0.000000
						}
					}
				}
				JOINT LeftShoulder
				{
					OFFSET 19.745895 -1.480373 6.000121
					CHANNELS 3 Xrotation Yrotation Zrotation
					JOINT LeftArm
					{
						OFFSET 11.284116 -0.000025 -0.000019
						CHANNELS 3 Xrotation Yrotation Zrotation
						JOINT LeftForeArm
						{
							OFFSET 33.000046 0.000010 0.000041
							CHANNELS 3 Xrotation Yrotation Zrotation
							JOINT LeftHand
							{
								OFFSET 25.200005 0.000005 0.000001
								CHANNELS 3 Xrotation Yrotation Zrotation
								End Site
								{
									OFFSET 0.000000 0.000000 0.000000
								}
							}
						}
					}
				}
				JOINT RightShoulder
				{
					OFFSET 19.746092 -1.480366 -6.000068
					CHANNELS 3 Xrotation Yrotation Zrotation
					JOINT RightArm
					{
						OFFSET 11.284133 -0.000025 -0.000013
						CHANNELS 3 Xrotation Yrotation Zrotation
						JOINT RightForeArm
						{
							OFFSET 33.000114 0.000025 -0.000011
							CHANNELS 3 Xrotation Yrotation Zrotation
							JOINT RightHand
							{
								OFFSET 25.199759 0.000128 0.000418
								CHANNELS 3 Xrotation Yrotation Zrotation
								End Site
								{
									OFFSET 0.000000 0.000000 0.000000
								}
							}
						}
					}
				}
			}
		}
	}
}
MOTION
Frames: 15
Frame Time: 0.033333
24.316130 91.053886 -453.289703 84.214388 3.236758 -147.340691 158.643233 -7.197798 168.844708 -25.400032 3.170697 -12.464412 80.703493 6.555578 -9.072617 21.454558 0.003106 0.000017 158.741123 5.128997 -154.059069 -31.048339 -0.748183 18.075648 84.567345 -11.304823 5.261556 21.454557 -0.003089 0.000001 7.869478 -1.184303 0.105319 5.725739 -2.372293 0.152246 5.407352 -2.371459 0.166575 -8.959107 -12.121200 -10.745188 -32.755074 15.109821 -22.886492 162.438004 -71.981328 16.712040 -9.417172 44.618583 13.843747 -42.810311 -11.447179 1.328617 5.413211 -13.142490 -2.536707 179.853989 79.906342 1.364965 -27.832785 -53.072728 -35.899997 -26.592536 8.629544 -0.756330 13.716478 3.241322 10.987767 
25.042879 90.995590 -452.952515 84.792605 2.884287 -148.780590 159.588558 -7.961501 168.271737 -25.981705 3.408960 -12.955260 80.583931 6.771179 -9.581775 21.454562 0.003103 0.000016 159.470423 4.019201 -155.409808 -30.899356 -0.834970 18.199877 84.921251 -11.421669 5.099482 21.454553 -0.003087 0.000001 7.812292 -1.047849 0.072342 5.611804 -2.097884 0.094085 5.293475 -2.097412 0.106746 -8.204516 -12.049561 -10.986377 -32.254984 15.722457 -23.265400 165.115028 -71.454591 13.988982 -8.032350 45.784155 16.040995 -40.264132 -11.167481 1.241573 5.257384 -11.895942 -1.910777 -177.327885 79.661589 4.224977 -25.266415 -53.874565 -38.964139 -27.013274 8.739974 -0.770540 13.394570 2.404436 9.935658 
25.706900 90.900528 -452.627991 85.368718 2.552688 -150.293504 160.246114 -8.726302 168.289728 -27.117816 3.392689 -13.828134 80.380494 7.241214 -10.145921 21.454557 0.003121 0.000018 160.142350 3.110113 -156.854133 -30.950254 -0.641127 18.279003 85.372064 -11.536360 4.809659 21.454555 -0.003090 -0.000000 7.771840 -0.918584 -0.003264 5.531956 -1.835896 -0.050193 5.213691 -1.836300 -0.039109 -7.380707 -11.674207 -11.064919 -31.399373 16.194143 -23.228468 165.584973 -70.996196 13.525986 -6.429961 47.223696 18.368300 -37.213589 -10.617920 1.128849 5.864838 -10.105872 -1.659315 -175.054934 79.342496 6.531973 -23.121794 -54.419792 -40.837626 -27.438210 8.619989 -0.769804 12.978693 2.150197 9.305685 
26.339920 90.787483 -452.321808 85.944612 2.157255 -151.877890 160.638905 -9.440313 168.552567 -28.839774 3.193244 -15.026319 79.914846 7.889021 -10.854229 21.454560 0.003105 0.000017 160.817760 2.462096 -157.738752 -31.177211 -0.507316 17.969212 85.940377 -11.413774 4.366529 21.454553 -0.003092 -0.000001 7.759408 -0.819142 -0.120546 5.508520 -1.631594 -0.279750 5.190292 -1.633392 -0.269893 -6.444732 -10.828751 -10.981860 -30.413043 16.311779 -22.673954 165.301028 -70.798913 13.826050 -5.272911 49.112260 20.431645 -33.682347 -9.796469 0.994194 6.290870 -7.190194 -3.337345 -172.121122 78.814646 9.514016 -21.745150 -54.676050 -42.101730 -27.827659 8.626601 -0.776898 12.858527 2.107783 9.041763 
26.925360 90.680794 -452.034485 86.509400 1.778044 -153.671907 160.656677 -10.269196 168.872397 -31.260594 2.837076 -16.349448 79.019647 8.524995 -11.826671 21.454555 0.003116 0.000020 161.500164 1.936400 -158.017178 -31.380898 -0.525214 17.194002 86.506736 -11.001773 3.728876 21.454558 -0.003086 0.000001 7.769773 -0.736950 -0.250970 5.530560 -1.461071 -0.536715 5.212375 -1.464421 -0.527883 -5.679912 -9.767996 -10.595172 -29.100718 16.176159 -21.585169 165.034077 -70.806310 14.100947 -4.491779 51.174492 22.375242 -30.663762 -8.788029 0.865928 6.795447 -4.372670 -7.128647 -169.840112 78.308331 11.834952 -20.947927 -54.855442 -42.682901 -28.222034 8.848484 -0.798351 12.680850 2.277373 9.003033 
27.455250 90.568657 -451.783691 87.060699 1.380969 -155.798404 160.219231 -11.139007 168.841306 -34.511539 2.617501 -17.438556 77.790008 9.228566 -11.698393 21.454560 0.003103 0.000018 162.113597 1.498198 -158.469350 -31.664521 -0.488124 16.305531 87.060426 -10.522152 3.014922 21.454555 -0.003090 0.000001 7.802753 -0.674090 -0.364012 5.597442 -1.329827 -0.760070 5.279276 -1.334533 -0.752028 -4.990735 -8.643149 -9.942761 -27.532364 15.735697 -20.041440 164.925040 -70.830496 14.211075 -3.409637 53.306679 23.845148 -29.489765 -8.062786 0.795815 10.050643 -5.453222 -23.029912 -168.513894 77.978296 13.186047 -20.770117 -55.114046 -42.636722 -28.528421 9.258607 -0.830670 12.688384 2.562553 9.162728 
27.902731 90.410606 -451.615295 87.643184 1.032096 -158.238408 159.464153 -11.951204 168.819231 -38.310616 2.583432 -18.515996 76.140613 10.016661 -11.119813 21.454557 0.003108 0.000018 162.605193 1.132091 -159.292074 -32.160608 -0.304066 15.418343 87.630699 -10.038297 2.309894 21.454550 -0.003094 -0.000001 7.859827 -0.626947 -0.409937 5.711718 -1.232950 -0.850199 5.393576 -1.238197 -0.842741 -4.082204 -7.476911 -9.036882 -25.931112 14.929515 -18.079772 164.828010 -70.941719 14.306024 -1.855579 55.657272 23.152521 -29.752369 -9.021718 0.863875 12.280991 -8.336700 -32.977106 -167.646023 77.814528 14.072015 -20.844617 -55.359011 -41.934022 -29.011396 9.655521 -0.865353 12.706395 2.800092 8.795617 
28.331921 90.242798 -451.520905 88.326101 0.718180 -160.708887 158.562445 -12.466294 169.054777 -42.213448 2.696805 -20.017778 74.133193 11.346128 -9.685632 21.454560 0.003095 0.000015 163.201797 0.867795 -159.941529 -32.691136 -0.127843 14.390841 88.195808 -9.451239 1.629705 21.454553 -0.003090 0.000000 7.946053 -0.569149 -0.424673 5.883837 -1.116020 -0.877628 5.565721 -1.121436 -0.870879 -2.825498 -6.615104 -7.716938 -24.030226 14.331260 -15.851460 165.689953 -70.851321 13.422971 -0.517057 56.929955 20.799212 -31.227516 -9.870376 0.948076 12.492274 -10.055095 -33.666146 -166.968988 77.698320 14.761972 -21.216475 -55.492784 -41.057845 -29.484926 10.098179 -0.902986 12.603416 3.049343 8.679893 
28.722309 90.070969 -451.489014 89.043482 0.521048 -163.269607 157.772247 -12.923204 169.483030 -45.731593 2.501015 -21.593295 72.852833 13.022338 -7.558724 21.454557 0.003110 0.000018 163.795176 0.582991 -160.965607 -33.200976 0.213510 13.493842 88.667337 -8.944310 1.004486 21.454553 -0.003086 0.000001 8.023811 -0.501171 -0.374235 6.038314 -0.982162 -0.774017 5.720185 -0.986958 -0.768073 -0.731046 -5.442470 -6.173706 -21.965178 13.237201 -13.107013 166.453008 -70.677104 12.646976 -0.104084 56.608512 19.248223 -32.863677 -9.967868 0.987975 11.544721 -9.620987 -31.653193 -167.117899 77.527503 14.610007 -21.574800 -55.422658 -40.597825 -29.905399 10.556320 -0.940742 12.607065 3.646832 9.306887 
29.040421 89.964943 -451.512299 89.615695 0.354851 -165.836392 157.066853 -13.276992 169.530759 -48.848178 2.541643 -21.153038 73.624528 13.054947 -6.430710 21.454558 0.003112 0.000018 164.339215 0.376403 -162.331795 -33.438738 0.706655 12.734130 88.980406 -8.531425 0.390598 21.454551 -0.003091 0.000000 8.067172 -0.438621 -0.286851 6.123885 -0.861460 -0.596415 5.805778 -0.865181 -0.591208 1.748867 -4.438419 -4.473969 -19.182457 11.798102 -10.090882 167.214970 -70.542112 11.868040 -0.487386 55.568951 18.603661 -34.122266 -10.236999 1.032690 10.206488 -8.510161 -26.697690 -167.294952 77.520216 14.428923 -21.997562 -55.316548 -40.230002 -30.392720 10.977837 -0.977491 12.464457 4.194561 9.972216 
29.304649 89.954826 -451.602112 90.001403 0.124168 -168.302801 156.423476 -13.244095 169.649810 -51.263865 2.671877 -18.210681 76.050345 11.023690 -6.495502 21.454563 0.003105 0.000015 164.790130 0.229292 -163.358495 -33.402934 0.759400 11.881302 89.067784 -8.024713 -0.059996 21.454553 -0.003094 -0.000001 8.083169 -0.405086 -0.227331 6.155301 -0.797499 -0.475802 5.837180 -0.800498 -0.470981 4.255404 -3.176041 -2.700021 -15.135938 9.799851 -6.754586 167.859016 -70.648519 11.201047 -1.038454 54.469488 18.414731 -35.224143 -10.747660 1.090790 8.860260 -6.799919 -21.647952 -167.384031 77.580615 14.339000 -22.602686 -55.210229 -39.694683 -30.887434 11.425581 -1.016251 12.497052 4.467953 10.200179 
29.544479 89.996437 -451.772400 90.300292 -0.102635 -170.720701 155.781302 -12.977298 170.564754 -52.823030 2.223636 -14.991227 77.725265 8.711782 -6.909951 21.454558 0.003112 0.000018 165.221607 0.155395 -164.505639 -33.185171 0.838187 11.115728 89.026352 -7.570529 -0.447819 21.454550 -0.003094 -0.000000 8.097017 -0.370033 -0.196016 6.182621 -0.729053 -0.411440 5.864495 -0.731662 -0.407035 6.912472 -2.231175 -0.733754 -10.200317 7.938052 -3.476403 168.676002 -70.665212 10.359020 -1.390585 53.405113 18.293547 -36.399553 -11.479799 1.165962 7.803331 -5.825154 -16.161600 -167.544923 77.767209 14.173958 -23.164498 -55.153313 -38.922656 -31.507625 12.037078 -1.068291 12.504231 4.642425 9.790469 
29.777031 90.110657 -451.970795 90.517000 -0.378494 -173.133998 155.123500 -12.326995 171.920957 -53.526605 1.370114 -12.810351 78.432497 6.907391 -8.179463 21.454551 0.003115 0.000018 165.679475 0.191497 -165.777270 -32.726042 1.011957 10.392030 88.856130 -7.154573 -0.847817 21.454553 -0.003093 0.000000 8.144689 -0.346079 -0.168274 6.277683 -0.682501 -0.355002 5.959568 -0.684770 -0.350878 9.352496 -1.788175 1.029540 -4.925369 6.148845 -0.717237 169.557984 -70.800607 9.446047 -2.012510 52.674689 16.997964 -37.527262 -11.868746 1.218479 6.758239 -5.688233 -9.946187 -167.069077 78.043237 14.660064 -23.880459 -55.189387 -37.493856 -32.316296 12.704570 -1.128109 12.184876 4.820041 9.353172 
29.984989 90.199669 -452.235107 90.610901 -0.541885 -175.605297 154.423870 -11.656693 172.890447 -53.507869 0.727663 -11.599538 78.869540 5.679488 -9.853288 21.454558 0.003105 0.000017 165.932807 0.240403 -166.814858 -32.349340 1.106560 9.512538 88.682739 -6.631248 -1.234161 21.454551 -0.003089 0.000000 8.205157 -0.314210 -0.112681 6.398187 -0.621678 -0.242497 6.080082 -0.623268 -0.238743 11.741341 -1.638473 2.494543 -0.101152 4.750054 1.393693 170.286971 -71.064211 8.687025 -2.484268 52.108261 16.162642 -38.916792 -12.512721 1.295201 5.975081 -5.928763 -4.605492 -166.554942 78.220330 15.182011 -24.235345 -55.168654 -36.306803 -33.454741 13.658258 -1.214004 11.785210 5.079748 9.209439 
30.151131 90.265373 -452.568787 90.614897 -0.642950 -178.262610 153.748091 -10.996903 173.395827 -52.757040 0.395081 -11.109593 79.182308 5.164428 -10.683402 21.454557 0.003104 0.000018 165.961302 0.303496 -168.153575 -32.107268 1.339130 8.675770 88.499601 -6.140952 -1.609460 21.454551 -0.003095 -0.000001 8.293348 -0.278036 -0.004545 6.574003 -0.555309 -0.024821 6.255880 -0.555586 -0.021472 14.903452 -1.668776 3.821904 1.518926 3.335416 3.149951 170.670049 -71.114195 8.291013 -2.759688 51.525779 15.519354 -40.470998 -13.158849 1.377778 5.670315 -6.675984 -1.626605 -166.773945 78.375389 14.958975 -23.807594 -55.116352 -35.309722 -35.018230 14.805898 -1.323028 11.553362 5.833934 8.964306 
